# xmcd
# 
# Track frame offsets:
#     150
#     15045
#     37631
# 
# Disc length: 783
# 
# Revision: 0
# Processed by: cddbd v1.5.2PL0 Copyright (c) Steve Scherf et al.
# Submitted via: BonkEnc v1.0.8
# 
DISCID=0a030d03
DTITLE=P. U. B. (Public Urban Bottle) - Whisky In The Jar (Maxi Cd)
DYEAR=1995
DGENRE=Dance
TTITLE0=Whisky In The Jar (Radio - Edit)
TTITLE1=Whisky In The Jar (Dance Mix)
TTITLE2=Whisky In The Jar (Instrumental)
EXTD=
EXTT0=
EXTT1=
EXTT2=
PLAYORDER=
